<?xml version="1.0" encoding="utf-8"?>
<!-- Generator: Adobe Illustrator 19.1.0, SVG Export Plug-In . SVG Version: 6.00 Build 0)  -->
<svg version="1.1" id="Layer_1" xmlns="http://www.w3.org/2000/svg" xmlns:xlink="http://www.w3.org/1999/xlink" x="0px" y="0px"
	 viewBox="0 0 1920 1080" style="" xml:space="preserve">
<style type="text/css">
	.st0{fill:#0275D8;}
</style>
<path class="st0" d="M914.1,499.6c-17.9,2-35.4,5.4-52.4,10.8c-20.3,6.5-39.1,16.2-57,27.7c-15.6,10.1-29.1,22.9-41.9,36.4
	c-10.3,11-18.3,23.6-25.7,36.6c-6.6,11.6-13,23.2-19.5,34.8c-6.5,11.6-13,23.2-19.4,34.9c-8,14.6-15.7,29.3-23.8,43.8
	c-8.1,14.6-16.6,29.1-24.8,43.7c-4.8,8.6-9.4,17.4-14.1,26.1c-3.7,6.8-7.4,13.5-11.2,20.2c-7.3,12.9-15.4,25.4-18.4,40.2
	c-2,10.2-1.1,19.5,7.4,26.7c9.1,7.8,19.2,13.8,30.5,17.7c28.3,9.8,56.9,16.1,87,9.1c11.4-2.7,21.9-7.3,31.4-14
	c10.5-7.5,18.9-17.1,25.4-28.3c7.5-13.1,14.9-26.2,22.3-39.3c4.4-7.9,8.5-16.1,13.3-23.8c1.8-2.9,3.7-5.7,5.6-8.5l0,0l55.9-103.4
	c2.5,4.2,5.1,8.4,7.9,12.5c10.9,15.7,22.2,31,34.1,45.9c7.6,9.5,16.4,18.1,25,26.8c7.7,7.8,15.6,15.5,24.1,22.4
	c10.8,8.7,22,16.9,33.5,24.5c9.7,6.5,19.7,12.6,29.9,18.3c18.5,10.3,38.1,18.7,58.2,25.2c23.1,7.5,46.5,13.1,71.1,12.4
	c33.7-0.9,66.6-5.2,96.7-22.2c12-6.8,22.6-15.1,31.9-25.1c7.2-7.8,13.5-16.2,16.8-26.6c1.5-4.8-0.1-8.3-5.2-8.7
	c-2-0.1-4.1,0.2-6.1,0.7c-9.1,2.5-18.1,5.4-27.3,7.8c-29.2,7.4-58.7,7.1-87.9,0.6c-24.3-5.4-46.6-15.9-67.1-29.8
	c-17.9-12.1-34.3-26.2-48.6-42.4c-9.7-11-19.4-22.1-27.9-34c-10.4-14.6-19.9-29.9-29.2-45.3c-5.6-9.3-10-19.2-15-28.9
	c-0.8-1.6-1.6-3.2-2.3-4.8c-4.8-10.3-9.7-20.5-14.2-31c-1.9-4.5,0.2-10.5,3.6-12.6c2.7-1.7,5.5-3.1,8.4-4.4
	c15.3-6.9,30.7-13.5,45.9-20.6c22.1-10.2,44.1-20.5,66-31c11-5.3,21.9-11.1,32.4-17.3c11.1-6.5,22.4-13,32.7-20.6
	c12.1-9,23.2-19.3,34.7-29c12.4-10.6,23.1-22.8,31.7-36.6c7.2-11.5,13.4-23.6,19-36c4.1-9.2,7.2-19.1,9.3-29
	c2.3-10.3,3.5-20.9,4.1-31.5c1-16.2-2-31.9-7.4-47.3c-3.9-11.1-8.7-21.8-15.6-31.2c-9.2-12.5-20.6-23-32.6-33
	c-15.6-12.9-32.6-22.9-51.6-29.5c-27.7-9.5-56.1-16-85.7-15.3c-7.4,0-14.9-0.1-22.3,0c-38.1,0.6-75.1,8.4-111.8,17.3
	c-16.9,4.1-33.6,9.1-50,15c-22.9,8.2-45.6,17.2-68.1,26.6c-13.4,5.6-26.4,12.3-39.3,19c-16,8.4-31.9,17.1-47.4,26.4
	c-10.6,6.4-20.9,13.3-30.8,20.7c-13.8,10.3-27.5,20.7-40.1,32.4c-9.5,8.8-17.1,19.6-25,29.9c-4,5.3-6.9,11.5-10.2,17.3
	c-7.9,14.2-12.8,29.5-14.2,45.6c-1.5,17.1-0.2,33.9,6,50.3c4.8,12.7,10.6,24.7,18.7,35.6c3,4,7.2,5.9,12,4.1c3.9-1.5,8-3.4,10.9-6.2
	c5.7-5.7,10.5-12.2,15.8-18.3c8.5-9.7,16.4-20,25.8-28.8c13.7-12.8,28.5-24.5,42.9-36.4c14.7-12.2,30.5-22.9,47.2-32
	c22.2-12.2,44.4-24.6,67.3-35.3c18.3-8.5,37.4-15.4,56.6-21.6c24.8-8.1,50.4-12.6,76.7-12.4c19.3,0.2,38.1,2,54.9,13.2
	c10.6,7.1,17.7,16.6,21.2,28.4c4.8,16.3,3.1,32.5-3.2,48.4c-7.6,19.2-19.8,35.1-35.2,48.6c-6,5.2-12.2,10.3-19,14.5
	c-12.4,7.6-24.8,15.3-37.9,21.6C959.9,497.9,930.6,497.8,914.1,499.6z"/>
</svg>
